<svg xmlns="http://www.w3.org/2000/svg" xmlns:xlink="http://www.w3.org/1999/xlink" width="947.781" height="947.782" viewBox="0 0 947.781 947.782">
  <defs>
    <radialGradient id="radial-gradient" cx="0.5" cy="0.497" r="0.465" gradientTransform="matrix(0.707, 0.707, -0.707, 0.707, 0.498, -0.206)" gradientUnits="objectBoundingBox">
      <stop offset="0" stop-color="#5f1870"/>
      <stop offset="0.16" stop-color="#5c1c73"/>
      <stop offset="0.32" stop-color="#55287b"/>
      <stop offset="0.49" stop-color="#483d89"/>
      <stop offset="0.65" stop-color="#365a9c"/>
      <stop offset="0.82" stop-color="#1f7fb4"/>
      <stop offset="0.98" stop-color="#03abd2"/>
      <stop offset="1" stop-color="#00b0d5"/>
    </radialGradient>
    <radialGradient id="radial-gradient-2" cx="0.348" cy="0.666" r="0.523" gradientTransform="translate(0)" gradientUnits="objectBoundingBox">
      <stop offset="0.06" stop-color="#00b0d5"/>
      <stop offset="1" stop-color="#481d7b"/>
    </radialGradient>
    <radialGradient id="radial-gradient-3" cx="0.323" cy="0.569" r="0.858" gradientTransform="translate(-0.155) scale(1.31 1)" gradientUnits="objectBoundingBox">
      <stop offset="0.05" stop-color="#f5a138"/>
      <stop offset="1" stop-color="#f02bb1"/>
    </radialGradient>
    <linearGradient id="linear-gradient" x1="-0.105" y1="1.344" x2="0.932" y2="-0.152" gradientTransform="matrix(1, 0, 0, 1, 0, 0)" xlink:href="#radial-gradient-2"/>
    <linearGradient id="linear-gradient-2" x1="-2.755" y1="5.086" x2="1.888" y2="-1.359" gradientTransform="matrix(1, 0, 0, 1, 0, 0)" xlink:href="#radial-gradient-2"/>
  </defs>
  <g id="Pink_and_blue_planet_-_02" data-name="Pink and blue planet - 02" transform="translate(-2413.639 138.779)">
    <g id="Grupo_2140" data-name="Grupo 2140">
      <circle id="Elipse_322" data-name="Elipse 322" cx="335.09" cy="335.09" r="335.09" transform="translate(2413.639 335.112) rotate(-45)" fill="url(#radial-gradient)"/>
    </g>
    <path id="Trazado_32567" data-name="Trazado 32567" d="M2403.32,70.86c0,134.2-108.79,243-243,243a242.62,242.62,0,0,1-53.92-6c-.35-.06-.69-.15-1-.22-107.73-24.9-188-121.46-188-236.76,0-120.42,87.6-220.38,202.56-239.64,2.69-.47,5.39-.87,8.1-1.23a244.782,244.782,0,0,1,32.34-2.13C2294.53-172.14,2403.32-63.35,2403.32,70.86Z" transform="translate(727.199 264.26)" fill="url(#radial-gradient-2)"/>
    <path id="Trazado_32568" data-name="Trazado 32568" d="M2403.32,70.86c0,134.2-108.79,243-243,243a242.62,242.62,0,0,1-53.92-6c20.56-17.71,76.8-37.68,134.32-60.57,109.17-43.44,105.66-142,38.75-123.25s-163.19,117.39-187.83,52.81,152.61-78.64,212.47-139.69-20-124.43-57.52-71.61-66.9,99.78-82.17,65.08,98.61-99.12,50.47-113.2S2077.55,64.14,2032.94,24.22s109.2-110.46,104.48-160.81c-1.31-14-9.39-24.74-17.54-32.19,2.69-.47,5.39-.87,8.1-1.23a244.785,244.785,0,0,1,32.34-2.13C2294.53-172.14,2403.32-63.35,2403.32,70.86Z" transform="translate(727.199 264.26)" fill="#f654f5" opacity="0.5" style="mix-blend-mode: multiply;isolation: isolate"/>
    <path id="Trazado_32569" data-name="Trazado 32569" d="M2403.32,70.86c0,134.2-108.79,243-243,243a243.939,243.939,0,0,1-55-6.24c-3.4-21.18,68.43-45.77,142.41-75.21,109.17-43.44,105.66-142,38.75-123.26S2123.33,226.54,2098.69,162,2251.3,83.35,2311.16,22.3s-19.95-124.42-57.52-71.61-66.9,99.78-82.17,65.09,98.61-99.12,50.47-113.21S2084.6,49.27,2040,9.36s123.26-113.87,104.48-160.82A37.241,37.241,0,0,0,2128-170a244.781,244.781,0,0,1,32.34-2.13C2294.53-172.14,2403.32-63.35,2403.32,70.86Z" transform="translate(727.199 264.26)" fill="url(#radial-gradient-3)" style="mix-blend-mode: screen;isolation: isolate"/>
    <path id="Trazado_32570" data-name="Trazado 32570" d="M2008.29,35.77c13.37,12.88,10,30.84-4.1,35.09s-28.77-8.67-27.59-22.17S1992.45,20.51,2008.29,35.77Z" transform="translate(727.199 264.26)" fill="#f654f5" opacity="0.5" style="mix-blend-mode: multiply;isolation: isolate"/>
    <path id="Trazado_32571" data-name="Trazado 32571" d="M1976.53,88.6c-26.88,7-51,78.65,11.81,83.93S2028.12,75.1,1976.53,88.6Z" transform="translate(727.199 264.26)" fill="#f654f5" opacity="0.5" style="mix-blend-mode: multiply;isolation: isolate"/>
    <path id="Trazado_32572" data-name="Trazado 32572" d="M2257.16,188.38c11.05,18.93-42.84,29.94-45.78,21.72S2249,174.3,2257.16,188.38Z" transform="translate(727.199 264.26)" fill="#f654f5" opacity="0.5" style="mix-blend-mode: multiply;isolation: isolate"/>
    <path id="Trazado_32573" data-name="Trazado 32573" d="M2196.12,212.86c1,11.53-26.41,14.26-25.24,4.28S2195,199.18,2196.12,212.86Z" transform="translate(727.199 264.26)" fill="#f654f5" opacity="0.5" style="mix-blend-mode: multiply;isolation: isolate"/>
    <path id="Trazado_32574" data-name="Trazado 32574" d="M2146.23,32.84c13,13-7,29.35-16.44,22.3S2137.42,24,2146.23,32.84Z" transform="translate(727.199 264.26)" fill="#f654f5" opacity="0.5" style="mix-blend-mode: multiply;isolation: isolate"/>
    <path id="Trazado_32575" data-name="Trazado 32575" d="M2041.75-95.7c20.58,10.29-8.59,38.15-15.45,30.52S2028.84-102.16,2041.75-95.7Z" transform="translate(727.199 264.26)" fill="#f654f5" opacity="0.5" style="mix-blend-mode: multiply;isolation: isolate"/>
    <g id="Grupo_2141" data-name="Grupo 2141">
      <path id="Trazado_32576" data-name="Trazado 32576" d="M2057.92,105.38c-39.74-49.42-117.47,1.75-88.83,58.33,19.65,38.84,51.1,80.48,100.71,105.28,112.69,56.35,203.47-28.17,161.21-60.26s-146.35-20.35-162.78-83a54.137,54.137,0,0,0-10.31-20.35Z" transform="translate(727.2 264.26)" fill="url(#linear-gradient)" style="mix-blend-mode: screen;isolation: isolate"/>
    </g>
    <g id="Grupo_2142" data-name="Grupo 2142">
      <path id="Trazado_32577" data-name="Trazado 32577" d="M2045.08,70.86c-55.11,0-45.4-41.56-12.14-46.64S2086,70.86,2045.08,70.86Z" transform="translate(727.2 264.26)" fill="url(#linear-gradient-2)" style="mix-blend-mode: screen;isolation: isolate"/>
    </g>
  </g>
</svg>
