<svg xmlns="http://www.w3.org/2000/svg" xmlns:xlink="http://www.w3.org/1999/xlink" width="2108.158" height="2108.158" viewBox="0 0 2108.158 2108.158">
  <defs>
    <radialGradient id="radial-gradient" cx="0.499" cy="0.496" r="0.71" gradientTransform="matrix(0.705, 0.709, -0.709, 0.705, 0.499, -0.208)" gradientUnits="objectBoundingBox">
      <stop offset="0" stop-color="#f5a138"/>
      <stop offset="0.05" stop-color="#f5a138"/>
      <stop offset="0.34" stop-color="#f59f3a"/>
      <stop offset="0.45" stop-color="#f59941"/>
      <stop offset="0.52" stop-color="#f48d4c"/>
      <stop offset="0.58" stop-color="#f37d5d"/>
      <stop offset="0.63" stop-color="#f36773"/>
      <stop offset="0.68" stop-color="#f14d8e"/>
      <stop offset="0.72" stop-color="#f02fad"/>
      <stop offset="0.72" stop-color="#f02bb1"/>
      <stop offset="1" stop-color="#f02bb1"/>
    </radialGradient>
    <radialGradient id="radial-gradient-2" cx="0.393" cy="0.417" r="0.63" gradientTransform="translate(0)" gradientUnits="objectBoundingBox">
      <stop offset="0" stop-color="#ff0074"/>
      <stop offset="0.14" stop-color="#fa0376"/>
      <stop offset="0.31" stop-color="#ec0b7c"/>
      <stop offset="0.49" stop-color="#d41886"/>
      <stop offset="0.68" stop-color="#b32b94"/>
      <stop offset="0.87" stop-color="#8843a5"/>
      <stop offset="0.9" stop-color="#8247a8"/>
    </radialGradient>
    <linearGradient id="linear-gradient" x1="0.233" y1="-0.036" x2="0.684" y2="0.811" gradientUnits="objectBoundingBox">
      <stop offset="0" stop-color="#ff0074"/>
      <stop offset="0.23" stop-color="#e70e7e"/>
      <stop offset="0.72" stop-color="#a93198"/>
      <stop offset="1" stop-color="#8247a8"/>
    </linearGradient>
    <linearGradient id="linear-gradient-2" x1="0.307" y1="-0.004" x2="0.691" y2="0.806" xlink:href="#linear-gradient"/>
    <linearGradient id="linear-gradient-3" x1="0.119" y1="-0.038" x2="0.466" y2="0.527" gradientUnits="objectBoundingBox">
      <stop offset="0.05" stop-color="#f5a138"/>
      <stop offset="1" stop-color="#f02bb1"/>
    </linearGradient>
    <linearGradient id="linear-gradient-4" x1="-0.165" y1="-1.052" x2="1.435" y2="2.681" xlink:href="#linear-gradient-3"/>
    <linearGradient id="linear-gradient-5" x1="-1.167" y1="-2.83" x2="2.929" y2="5.348" xlink:href="#linear-gradient-3"/>
  </defs>
  <g id="Pink_planet_-_02" data-name="Pink planet - 02" transform="translate(-3031.391 -759.99)">
    <g id="Grupo_2150" data-name="Grupo 2150" transform="translate(3031.391 759.99)">
      <circle id="Elipse_323" data-name="Elipse 323" cx="745.343" cy="745.343" r="745.343" transform="translate(0 1054.079) rotate(-45)" opacity="0.704" fill="url(#radial-gradient)" style="mix-blend-mode: screen;isolation: isolate"/>
    </g>
    <circle id="Elipse_324" data-name="Elipse 324" cx="609.175" cy="609.175" r="609.175" transform="translate(3476.286 1204.905)" fill="url(#radial-gradient-2)"/>
    <circle id="Elipse_325" data-name="Elipse 325" cx="609.175" cy="609.175" r="609.175" transform="translate(3476.286 1204.905)" fill="url(#radial-gradient-2)"/>
    <ellipse id="Elipse_326" data-name="Elipse 326" cx="115.284" cy="190.118" rx="115.284" ry="190.118" transform="translate(4075.611 1518.891) rotate(-74.55)" fill="#8b1461"/>
    <path id="Trazado_32606" data-name="Trazado 32606" d="M3291.785,1000.838c-12.807-50.363-72.373-100.432-152.51-122.58-101.212-27.972-197.016-.884-213.983,60.467a75.41,75.41,0,0,1,0-39.115c16.949-61.385,112.753-88.387,213.982-60.5S3308.734,939.453,3291.785,1000.838Z" transform="translate(1180.619 507.926)" fill="#560924"/>
    <path id="Trazado_32607" data-name="Trazado 32607" d="M2981.525,812.029c2.6,20.052-22.738,39.861-56.584,44.263s-63.413-8.319-66.013-28.37,22.738-39.861,56.584-44.263S2978.926,791.96,2981.525,812.029Z" transform="translate(1133.727 474.694)" fill="#8b1461"/>
    <path id="Trazado_32608" data-name="Trazado 32608" d="M2979.047,825.776c-8.128-15.494-34.211-24.523-63.535-20.8-26,3.379-46.967,15.858-54.124,30.571a22.519,22.519,0,0,1-2.461-7.66c-2.6-20.052,22.755-39.861,56.584-44.28s63.413,8.319,66.013,28.388a23.709,23.709,0,0,1-2.479,13.778Z" transform="translate(1133.727 474.655)" fill="#560924"/>
    <path id="Trazado_32609" data-name="Trazado 32609" d="M2767.095,912.863c16.551,11.612,14.089,43.674-5.528,71.628s-48.907,41.178-65.476,29.566-14.09-43.691,5.528-71.628S2750.527,901.234,2767.095,912.863Z" transform="translate(1006.447 566.959)" fill="#8b1461"/>
    <path id="Trazado_32610" data-name="Trazado 32610" d="M2672.407,985.609c15.6,3.05,24.506,23.916,20.052,46.6s-20.658,38.6-36.2,35.545-24.506-23.916-20.052-46.6S2656.862,982.558,2672.407,985.609Z" transform="translate(969.751 623.102)" fill="#8b1461"/>
    <path id="Trazado_32611" data-name="Trazado 32611" d="M2777.829,943.259a22.714,22.714,0,0,0-6.655-7.331c-16.551-11.629-45.875,1.612-65.493,29.549-9.6,13.726-15.13,28.474-16.239,41.264-8.666-14.8-4.177-41,12.132-64.314,19.618-27.954,48.924-41.178,65.476-29.566C2775.507,918.788,2779.025,930.053,2777.829,943.259Z" transform="translate(1006.441 566.961)" fill="#560924"/>
    <path id="Trazado_32612" data-name="Trazado 32612" d="M2685.379,993.856c-15.13-1.924-30.537,13.726-34.887,35.736-3,15.234,0,29.636,7.089,38.37l-1.317-.208c-15.6-3.033-24.523-23.916-20.069-46.6s20.675-38.578,36.221-35.545a22.164,22.164,0,0,1,12.963,8.249Z" transform="translate(969.743 623.104)" fill="#560924"/>
    <path id="Trazado_32613" data-name="Trazado 32613" d="M3010.964,1398.969c-3.258,25.632-36.256,42.547-73.69,37.764s-65.112-29.462-61.854-55.042,36.273-42.547,73.691-37.781S3014.24,1373.337,3010.964,1398.969Z" transform="translate(1145.761 885.45)" fill="#8b1461"/>
    <path id="Trazado_32614" data-name="Trazado 32614" d="M3010.955,1383.678c-3.258,25.632-36.239,42.53-73.69,37.764s-65.06-29.462-61.836-54.973c8.527,17.521,30.8,31.784,58.335,35.3,37.435,4.783,70.415-12.132,73.69-37.781h0A34.753,34.753,0,0,1,3010.955,1383.678Z" transform="translate(1145.77 900.758)" fill="#560924"/>
    <ellipse id="Elipse_327" data-name="Elipse 327" cx="148.68" cy="101.835" rx="148.68" ry="101.835" transform="translate(3632.98 1962.375) rotate(-78.88)" fill="#8b1461"/>
    <path id="Trazado_32615" data-name="Trazado 32615" d="M2856.053,1080.647c-11.646-12.807-25.909-21.542-42.235-24.766-55.2-10.849-112.771,45.667-128.612,126.254-8.665,44.436-2.946,86.914,13.258,117.849-27.729-30.485-40.19-84.019-29.046-140.76,15.84-80.571,73.413-137.1,128.611-126.272C2822.8,1037.84,2842.865,1055.43,2856.053,1080.647Z" transform="translate(991.959 657.109)" fill="#560924"/>
    <ellipse id="Elipse_328" data-name="Elipse 328" cx="79.6" cy="116.22" rx="79.6" ry="116.22" transform="matrix(0.574, -0.819, 0.819, 0.574, 3697.311, 2234.449)" fill="#8b1461"/>
    <path id="Trazado_32616" data-name="Trazado 32616" d="M2897.569,1464.77c-29.844,22.773-83.343,17.99-128.906-13.986-52.547-36.863-74.678-95.926-49.427-131.9,8.3-11.8,20.641-19.67,35.354-23.57a55.624,55.624,0,0,0-11.958,12.391c-25.251,35.979-3.119,95.042,49.428,131.9C2827.345,1464.389,2867.413,1472.811,2897.569,1464.77Z" transform="translate(1023.804 850.411)" fill="#560924"/>
    <ellipse id="Elipse_329" data-name="Elipse 329" cx="96.409" cy="66.023" rx="96.409" ry="66.023" transform="matrix(0.349, -0.937, 0.937, 0.349, 4472.479, 1980.009)" fill="#8b1461"/>
    <path id="Trazado_32617" data-name="Trazado 32617" d="M3274.674,1226.93c-18.526,49.739-61.195,79.721-95.319,67.053-14.038-5.2-24.437-16.932-30.485-32.322a46.1,46.1,0,0,0,16.291,10.4c34.055,12.721,76.723-17.331,95.319-67.036,10.936-29.254,11.057-58.786,2.427-80.744C3284.275,1144.869,3289.873,1186.186,3274.674,1226.93Z" transform="translate(1346.41 725.033)" fill="#560924"/>
    <ellipse id="Elipse_330" data-name="Elipse 330" cx="164.538" cy="110.969" rx="164.538" ry="110.969" transform="translate(4098.842 2005.93) rotate(-45)" fill="#8b1461"/>
    <path id="Trazado_32618" data-name="Trazado 32618" d="M3168.538,1318.821c-64.263,64.245-151.471,81.194-194.815,37.85a79.184,79.184,0,0,1-19.722-33.5c1.109,1.3,2.271,2.565,3.466,3.813,43.327,43.327,130.552,26.36,194.832-37.868,50.346-50.38,71.663-114.885,57.607-161.176C3248.727,1172.342,3230.928,1256.413,3168.538,1318.821Z" transform="translate(1203.557 727.716)" fill="#560924"/>
    <path id="Trazado_32619" data-name="Trazado 32619" d="M3118,1125.012c-20.451,2.652-40.173-19.41-44.037-49.271s9.567-56.2,30.017-58.924,40.173,19.393,44.037,49.254S3138.448,1122.36,3118,1125.012Z" transform="translate(1291.011 646.088)" fill="#8b1461"/>
    <path id="Trazado_32620" data-name="Trazado 32620" d="M3131.047,1117.058c5.6-10.711,8.093-24.956,6.118-40.1-3.882-29.844-23.587-51.888-44.037-49.237a28.248,28.248,0,0,0-15.927,7.92c5.442-10.4,13.865-17.487,23.917-18.787,20.45-2.652,40.173,19.41,44.037,49.254C3147.91,1087.214,3142,1106.59,3131.047,1117.058Z" transform="translate(1293.871 646.122)" fill="#560924"/>
    <path id="Trazado_32621" data-name="Trazado 32621" d="M3074.181,1395.246c-9.393-11.854-3-32.6,14.315-46.342s38.959-15.268,48.37-3.466,3,32.6-14.3,46.342S3083.592,1407.1,3074.181,1395.246Z" transform="translate(1288.485 881.339)" fill="#8b1461"/>
    <path id="Trazado_32622" data-name="Trazado 32622" d="M3120.141,1391.773c-16.534,13.136-37.036,15.112-47,4.887,9.965.884,21.993-2.964,32.408-11.248,17.331-13.76,23.726-34.505,14.3-46.36a11.905,11.905,0,0,0-1.351-1.473,22.079,22.079,0,0,1,15.979,7.851C3143.849,1357.372,3137.455,1378.03,3120.141,1391.773Z" transform="translate(1290.895 881.397)" fill="#560924"/>
    <g id="Grupo_2151" data-name="Grupo 2151" transform="translate(3512.889 1343.048)">
      <path id="Trazado_32623" data-name="Trazado 32623" d="M3763.751,1303.279c0,336.442-272.717,609.193-609.158,609.193-263.185,0-487.409-166.912-572.573-400.669a606.576,606.576,0,0,0,386.441,138.091c336.441,0,609.175-272.751,609.175-609.193a606.96,606.96,0,0,0-36.654-208.541A607.913,607.913,0,0,1,3763.751,1303.279Z" transform="translate(-2582.02 -832.16)" opacity="0.5" fill="url(#linear-gradient)" style="mix-blend-mode: multiply;isolation: isolate"/>
    </g>
    <g id="Grupo_2152" data-name="Grupo 2152" transform="translate(3520.324 1466.252)">
      <path id="Trazado_32624" data-name="Trazado 32624" d="M3760.606,1251.165c0,336.442-272.717,609.193-609.158,609.193-255.888,0-474.948-157.71-565.138-381.38,110.05,158,293.028,261.382,500.165,261.382,336.459,0,609.176-272.751,609.176-609.193a606.713,606.713,0,0,0-44.037-227.917,606.211,606.211,0,0,1,108.993,347.915Z" transform="translate(-2586.31 -903.25)" opacity="0.5" fill="url(#linear-gradient-2)" style="mix-blend-mode: multiply;isolation: isolate"/>
    </g>
    <g id="Grupo_2153" data-name="Grupo 2153" transform="translate(3528.851 1257.572)">
      <path id="Trazado_32625" data-name="Trazado 32625" d="M3673.378,1155.607c-102.06-119.582-225.3-173.879-394.829-169.339-544.584,14.61-574.306,656.835-554.185,714.3a554.46,554.46,0,0,1-133.134-361.138c0-307.4,249.2-556.594,556.61-556.594C3390.853,782.753,3597.5,938.487,3673.378,1155.607Z" transform="translate(-2591.23 -782.84)" fill="url(#linear-gradient-3)" style="mix-blend-mode: screen;isolation: isolate"/>
    </g>
    <g id="Grupo_2154" data-name="Grupo 2154" transform="translate(3765.29 1318.749)">
      <path id="Trazado_32626" data-name="Trazado 32626" d="M2955.959,830.22c20.971,21.611-11.715,64.834-73.014,96.532s-127.97,39.861-148.94,18.284,11.716-64.834,73.014-96.55S2934.99,808.609,2955.959,830.22Z" transform="translate(-2727.657 -818.139)" fill="url(#linear-gradient-4)" style="mix-blend-mode: screen;isolation: isolate"/>
    </g>
    <g id="Grupo_2155" data-name="Grupo 2155" transform="translate(3676.361 1465.781)">
      <path id="Trazado_32627" data-name="Trazado 32627" d="M2767.6,925.841c3.276,16.828-14.4,34.419-39.5,39.306s-48.093-4.783-51.368-21.611,14.4-34.4,39.5-39.289S2764.394,909.03,2767.6,925.841Z" transform="translate(-2676.344 -902.978)" fill="url(#linear-gradient-5)" style="mix-blend-mode: screen;isolation: isolate"/>
    </g>
  </g>
</svg>
