<svg xmlns="http://www.w3.org/2000/svg" xmlns:xlink="http://www.w3.org/1999/xlink" width="879.604" height="879.55" viewBox="0 0 879.604 879.55">
  <defs>
    <radialGradient id="radial-gradient" cx="0.504" cy="0.476" r="0.454" gradientTransform="translate(0)" gradientUnits="objectBoundingBox">
      <stop offset="0" stop-color="#5f1870"/>
      <stop offset="0.16" stop-color="#5c1c73"/>
      <stop offset="0.32" stop-color="#55287b"/>
      <stop offset="0.49" stop-color="#483d89"/>
      <stop offset="0.65" stop-color="#365a9c"/>
      <stop offset="0.82" stop-color="#1f7fb4"/>
      <stop offset="0.98" stop-color="#03abd2"/>
      <stop offset="1" stop-color="#00b0d5"/>
    </radialGradient>
    <radialGradient id="radial-gradient-2" cx="0.348" cy="0.227" r="0.741" gradientTransform="translate(0)" gradientUnits="objectBoundingBox">
      <stop offset="0.06" stop-color="#00b0d5"/>
      <stop offset="1" stop-color="#481d7b"/>
    </radialGradient>
    <linearGradient id="linear-gradient" x1="0.379" y1="0.283" x2="0.697" y2="0.826" gradientUnits="objectBoundingBox">
      <stop offset="0" stop-color="#ff0074"/>
      <stop offset="0.23" stop-color="#e70e7e"/>
      <stop offset="0.72" stop-color="#a93198"/>
      <stop offset="1" stop-color="#8247a8"/>
    </linearGradient>
    <linearGradient id="linear-gradient-2" x1="0.155" y1="0.107" x2="1.014" y2="1.086" gradientTransform="matrix(1, 0, 0, 1, 0, 0)" xlink:href="#radial-gradient-2"/>
    <linearGradient id="linear-gradient-3" x1="-0.835" y1="-0.456" x2="2.492" y2="1.929" gradientTransform="matrix(1, 0, 0, 1, 0, 0)" xlink:href="#radial-gradient-2"/>
  </defs>
  <g id="pink_and_blue_planet" data-name="pink and blue planet" transform="translate(-2140.137 -1850.479)">
    <path id="Trazado_32648" data-name="Trazado 32648" d="M1703.34,2151.26c21.81,55.72,13.33,126.06-14.87,184.42q-7.07-3.73-13.93-7.82l-.29-.17c30.49-55.11,43-123.64,27.44-180.75C1702.22,2148.37,1702.78,2149.81,1703.34,2151.26Z" transform="translate(727.199 264.26)" fill="#dc19b4" opacity="0.92" style="mix-blend-mode: screen;isolation: isolate"/>
    <g id="Grupo_2160" data-name="Grupo 2160">
      <path id="Trazado_32649" data-name="Trazado 32649" d="M2292.53,2026q0,12.52-.69,24.89-.95,16.92-3.15,33.49a437.077,437.077,0,0,1-30.37,112q-3,7-6.16,13.95-6.43,14-13.81,27.33a439.717,439.717,0,0,1-45.87,67.64c-.33.41-.66.8-1,1.19q-8.86,10.71-18.4,20.84A438.658,438.658,0,0,1,1909,2462.19q-12.81,1.65-25.85,2.52-9.12.63-18.35.88c-4,.13-8,.18-12.09.18A438.994,438.994,0,0,1,1716,2444.09q-16.38-5.331-32.16-11.92-8.6-3.57-17-7.49-10.26-4.79-20.2-10.08-8.88-4.71-17.49-9.82l-.36-.22h0a442.221,442.221,0,0,1-147.52-143q-7.5-11.79-14.24-24.06c-.46-.85-.93-1.69-1.39-2.55a440.791,440.791,0,0,1-16.91-383c1.75-4.07,3.57-8.12,5.46-12.12a439.584,439.584,0,0,1,60.27-94.85c1-1.16,2-2.33,2.94-3.49a440.458,440.458,0,0,1,402.76-150.13q9,1.38,17.89,3.14c2.62.51,5.22,1,7.83,1.63a436.19,436.19,0,0,1,150.7,63.82q3.78,2.5,7.48,5.12,7.2,5,14.16,10.29a441.341,441.341,0,0,1,86.17,86.5l.06.06q8.05,10.71,15.47,21.93a437.442,437.442,0,0,1,72.62,240.2C2292.53,2024.64,2292.53,2025.29,2292.53,2026Z" transform="translate(727.2 264.26)" fill="url(#radial-gradient)"/>
    </g>
    <path id="Trazado_32650" data-name="Trazado 32650" d="M2203.23,2026q0,10-.55,19.84-.75,13.48-2.51,26.69a348.321,348.321,0,0,1-24.21,89.24q-2.34,5.61-4.91,11.12-5.13,11.12-11,21.78a350.212,350.212,0,0,1-36.55,53.9l-.79,1q-7.08,8.53-14.67,16.6a349.541,349.541,0,0,1-210.46,107.52q-10.21,1.321-20.6,2-7.27.49-14.62.7c-3.21.1-6.42.14-9.64.14a350,350,0,0,1-109-17.28q-13-4.24-25.63-9.5-6.84-2.85-13.53-6-8.17-3.81-16.1-8-7.07-3.73-13.93-7.82l-.29-.17h0a352.529,352.529,0,0,1-117.58-114q-6-9.41-11.34-19.17c-.37-.68-.74-1.35-1.11-2a351.359,351.359,0,0,1-13.48-305.25q2.1-4.87,4.35-9.66a350.849,350.849,0,0,1,48-75.59c.78-.93,1.56-1.86,2.35-2.78a350.971,350.971,0,0,1,320.98-119.65q7.17,1.1,14.26,2.5c2.09.41,4.16.83,6.24,1.3a347.551,347.551,0,0,1,120.1,50.86c2,1.33,4,2.7,6,4.08q5.73,4,11.29,8.2a352.009,352.009,0,0,1,68.67,68.94h.05q6.42,8.54,12.33,17.47a348.662,348.662,0,0,1,57.88,191.43Z" transform="translate(727.199 264.26)" fill="url(#radial-gradient-2)"/>
    <path id="Trazado_32651" data-name="Trazado 32651" d="M2064.29,1746.49c-.77,2.53-1.53,5.09-2.27,7.66-42.1,144.56-221.43,126.27-373.55,93.33-64.38-13.93-115.19,3.26-153.39,30.09a349.519,349.519,0,0,1,20.75-38c34-16.47,75.62-24.29,125.35-13.52,150.15,32.51,326.8,50.77,371.82-87.76Q2058.73,1742.27,2064.29,1746.49Z" transform="translate(727.199 264.26)" fill="#dc19b4" opacity="0.31" style="mix-blend-mode: multiply;isolation: isolate"/>
    <path id="Trazado_32652" data-name="Trazado 32652" d="M2123.5,2248.53l-.79,1c-10.49-18.64-28-30.13-53.38-28.69-62.29,3.51-123.08,70.45-171.75,152.81q-10.21,1.32-20.6,2c.1-.18.2-.35.28-.52,50.61-92.51,116.81-171.89,184.79-175.75,21.38-1.21,37.16,6.74,47.86,20.41a92.759,92.759,0,0,1,13.21,27.39C2123.26,2247.61,2123.38,2248.07,2123.5,2248.53Z" transform="translate(727.199 264.26)" fill="#dc19b4" opacity="0.31" style="mix-blend-mode: multiply;isolation: isolate"/>
    <path id="Trazado_32653" data-name="Trazado 32653" d="M2202.68,2045.8q-.75,13.48-2.51,26.69c-73.15,35.27-164.16-10.81-289.72-47.5-164.7-48.14-246.31-5.86-214.68,104.08-48.8-125.71,32.4-176.64,207.4-125.5C2034.39,2041.91,2127.88,2090.49,2202.68,2045.8Z" transform="translate(727.199 264.26)" fill="#dc19b4" opacity="0.31" style="mix-blend-mode: multiply;isolation: isolate"/>
    <path id="Trazado_32654" data-name="Trazado 32654" d="M2053,1738.29c-45,138.53-221.67,120.27-371.82,87.76-49.73-10.77-91.37-3-125.35,13.52a352.012,352.012,0,0,1,27.28-37.59c.78-.93,1.56-1.86,2.35-2.78a346.888,346.888,0,0,1,24.29-25.84c58.26-1.91,109.12,27.3,190-9.52,46.32-21.09,81-52.28,106.69-84.29q7.17,1.1,14.26,2.5c2.09.41,4.16.83,6.24,1.3a347.545,347.545,0,0,1,120.1,50.86C2049.05,1735.54,2051,1736.91,2053,1738.29Z" transform="translate(727.199 264.26)" fill="#dc19b4" opacity="0.92" style="mix-blend-mode: screen;isolation: isolate"/>
    <path id="Trazado_32655" data-name="Trazado 32655" d="M2171.05,2172.85q-5.13,11.12-11,21.78a350.216,350.216,0,0,1-36.55,53.9c-7.91-30.16-27.71-51.08-61.45-49.17-68.11,3.87-134.43,83.53-185.07,176.27q-7.27.49-14.62.7c-3.21.1-6.42.14-9.64.14a350,350,0,0,1-109-17.28q-13-4.24-25.63-9.5c52.2-35.2,128.68-74.05,219.52-126.54C2016.6,2177.5,2094.72,2174,2171.05,2172.85Z" transform="translate(727.199 264.26)" fill="#dc19b4" opacity="0.92" style="mix-blend-mode: screen;isolation: isolate"/>
    <path id="Trazado_32656" data-name="Trazado 32656" d="M2203.23,2026q0,10-.55,19.84c-74.8,44.69-168.29-3.89-299.51-42.23-175.36-51.25-256.52,0-207.11,126.25,23.51,60.09,11.8,137.14-21.81,197.87h0a352.529,352.529,0,0,1-117.58-114q-6-9.41-11.34-19.17c107.07-56.71,5.84-212.63,65.61-273.31,63.11-64,255.32,71.37,412.45-31.54,44.71-29.27,81.16-52.8,109.58-74.24h.05q6.42,8.54,12.33,17.47a348.662,348.662,0,0,1,57.88,191.43Z" transform="translate(727.199 264.26)" fill="#dc19b4" opacity="0.92" style="mix-blend-mode: screen;isolation: isolate"/>
    <path id="Trazado_32657" data-name="Trazado 32657" d="M1701.69,2146.94q-3.43-9.2-5.92-17.86c.09.25.19.5.29.74A169.665,169.665,0,0,1,1701.69,2146.94Z" transform="translate(727.199 264.26)" fill="#dc19b4" opacity="0.92" style="mix-blend-mode: screen;isolation: isolate"/>
    <g id="Grupo_2161" data-name="Grupo 2161">
      <path id="Trazado_32658" data-name="Trazado 32658" d="M2203.23,2026q0,10-.55,19.84-.75,13.48-2.51,26.69a348.321,348.321,0,0,1-24.21,89.24q-2.34,5.61-4.91,11.12-5.13,11.12-11,21.78a350.212,350.212,0,0,1-36.55,53.9l-.79,1q-7.08,8.53-14.67,16.6a349.541,349.541,0,0,1-210.46,107.52q-10.21,1.321-20.6,2-7.27.49-14.62.7c-3.21.1-6.42.14-9.64.14a350,350,0,0,1-109-17.28q-13-4.24-25.63-9.5-6.84-2.85-13.53-6-8.17-3.81-16.1-8-7.07-3.73-13.93-7.82l-.29-.17h0a352.529,352.529,0,0,1-117.58-114q-6-9.41-11.34-19.17c-.37-.68-.74-1.35-1.11-2a347.863,347.863,0,0,1-22.75-51.67q4.57,2.63,9.25,5.09,7.92,4.21,16.1,8,6.69,3.12,13.53,6,12.59,5.22,25.63,9.5a349.936,349.936,0,0,0,109,17.28q4.85,0,9.64-.15,7.35-.2,14.63-.7,10.38-.69,20.6-2a349.57,349.57,0,0,0,210.45-107.52q7.61-8.07,14.67-16.61l.79-.95a350.391,350.391,0,0,0,36.56-53.91q5.88-10.66,11-21.78,2.57-5.49,4.91-11.12a347.687,347.687,0,0,0,24.2-89.24q1.75-13.18,2.51-26.68.55-9.87.55-19.85v-1.57a350,350,0,0,0-19.22-113.26q10.65,6.09,20.81,12.87c2,1.33,4,2.7,6,4.08q5.73,4,11.29,8.2a352,352,0,0,1,68.67,68.94h.05q6.42,8.54,12.33,17.47a348.662,348.662,0,0,1,57.88,191.43A12.7,12.7,0,0,0,2203.23,2026Z" transform="translate(727.2 264.26)" opacity="0.5" fill="url(#linear-gradient)" style="mix-blend-mode: multiply;isolation: isolate"/>
    </g>
    <g id="Grupo_2162" data-name="Grupo 2162">
      <ellipse id="Elipse_334" data-name="Elipse 334" cx="141.22" cy="88.9" rx="141.22" ry="88.9" transform="translate(2294.784 2116.679) rotate(-45)" fill="url(#linear-gradient-2)" style="mix-blend-mode: screen;isolation: isolate"/>
    </g>
    <g id="Grupo_2163" data-name="Grupo 2163">
      <path id="Trazado_32659" data-name="Trazado 32659" d="M1606,1960.74c-15.09,15.08-38.14,16.5-51.48,3.15s-11.93-36.39,3.16-51.48,38.14-16.51,51.48-3.16S1621,1945.65,1606,1960.74Z" transform="translate(727.2 264.26)" fill="url(#linear-gradient-3)" style="mix-blend-mode: screen;isolation: isolate"/>
    </g>
  </g>
</svg>
