<svg xmlns="http://www.w3.org/2000/svg" xmlns:xlink="http://www.w3.org/1999/xlink" width="300" height="80" viewBox="0 0 300 80" preserveAspectRatio="none">
  <defs>
    <linearGradient id="linear-gradient" x1="0.5" x2="0.5" y2="1" gradientUnits="objectBoundingBox">
      <stop offset="0" stop-color="#e135c3"/>
      <stop offset="1" stop-color="#94047b"/>
    </linearGradient>
    <linearGradient id="linear-gradient-2" x1="0.5" x2="0.5" y2="1" gradientUnits="objectBoundingBox">
      <stop offset="0" stop-color="#e55ccd"/>
      <stop offset="1" stop-color="#e55ccd" stop-opacity="0.502"/>
    </linearGradient>
  </defs>
  <g id="Start-btn" transform="translate(-1391 -8817)">
    <g id="Rect치ngulo_409" data-name="Rect치ngulo 409" transform="translate(1391 8817)" stroke="#8f2072" stroke-width="3" fill="url(#linear-gradient)">
      <rect width="300" height="80" rx="20" stroke="none"/>
      <rect x="1.5" y="1.5" width="297" height="77" rx="18.5" fill="none"/>
    </g>
    <rect id="Rect치ngulo_410" data-name="Rect치ngulo 410" width="285" height="70" rx="20" transform="translate(1399 8822)" fill="url(#linear-gradient-2)"/>
    <ellipse id="Elipse_126" data-name="Elipse 126" cx="3" cy="2" rx="3" ry="2" transform="matrix(0.883, -0.469, 0.469, 0.883, 1417.531, 8846.108)" fill="#fff"/>
    <path id="Vector" d="M7.289.226c-7.5-1.615-9.8,5.933-4.113,6.7S15.193,1.929,7.289.226Z" transform="translate(1425 8833)" fill="#fff"/>
    <path id="START" d="M8.872,24.432A12.794,12.794,0,0,1,.088,20.976l2.448-2.844A11.648,11.648,0,0,0,5.56,20.076a9.009,9.009,0,0,0,3.564.72A5.246,5.246,0,0,0,12.256,20a2.437,2.437,0,0,0,1.08-2.052,2.591,2.591,0,0,0-.288-1.3,2.782,2.782,0,0,0-.828-.936A5.616,5.616,0,0,0,10.96,15q-.72-.324-1.584-.684l-3.2-1.4a11.8,11.8,0,0,1-1.836-.9,7.69,7.69,0,0,1-1.62-1.3A5.9,5.9,0,0,1,1.564,8.952a5.8,5.8,0,0,1-.432-2.3,5.576,5.576,0,0,1,.612-2.592A6.563,6.563,0,0,1,3.436,1.932,7.969,7.969,0,0,1,5.992.528,10.419,10.419,0,0,1,9.3.024a10.365,10.365,0,0,1,4.1.828,11.083,11.083,0,0,1,3.456,2.16L14.7,5.676A10.339,10.339,0,0,0,12.184,4.2a8.029,8.029,0,0,0-3.1-.54,4.727,4.727,0,0,0-2.736.72A2.371,2.371,0,0,0,5.344,6.432,2.149,2.149,0,0,0,5.668,7.62a3.685,3.685,0,0,0,.864.864,8.158,8.158,0,0,0,1.3.648q.756.288,1.548.612l3.1,1.332a12.548,12.548,0,0,1,2.052,1.008,7.388,7.388,0,0,1,1.62,1.332,5.21,5.21,0,0,1,1.044,1.764,5.983,5.983,0,0,1,.4,2.268,6.1,6.1,0,0,1-.612,2.7A6.564,6.564,0,0,1,15.28,22.38a8.8,8.8,0,0,1-2.736,1.512A11.584,11.584,0,0,1,8.872,24.432ZM28.3,24V3.984H20.882V.456H39.89V3.984H32.474V24ZM49.74,11.472l-.828,2.88h5.976l-.828-2.88q-.5-1.872-1.044-3.816-.54-1.98-1.044-3.96h-.144q-.5,1.98-1.044,3.96Q50.28,9.6,49.74,11.472ZM41.892,24,49.524.456h4.9L62.052,24H57.624l-1.8-6.372H47.976L46.14,24Zm23.89,0V.456H73.63a15.416,15.416,0,0,1,3.42.36A7.464,7.464,0,0,1,79.786,2a5.269,5.269,0,0,1,1.836,2.124,7.2,7.2,0,0,1,.684,3.312,6.868,6.868,0,0,1-1.3,4.356,6.926,6.926,0,0,1-3.384,2.376L83.242,24H78.526l-5.04-9.216H69.958V24Zm4.176-12.528H73.2a5.837,5.837,0,0,0,3.708-1.008A3.594,3.594,0,0,0,78.2,7.44a3.059,3.059,0,0,0-1.3-2.844A7.04,7.04,0,0,0,73.2,3.8h-3.24ZM93.056,24V3.984H85.64V.456h19.008V3.984H97.232V24Z" transform="translate(1489.132 8844.771)" fill="#fff"/>
  </g>
</svg>
