<svg width="483" height="169" viewBox="0 0 483 169" fill="none" xmlns="http://www.w3.org/2000/svg">
<path d="M41.8496 0.816955C47.0661 0.871418 51.6379 1.7156 55.565 3.3495C59.4921 4.9834 62.7451 7.16194 65.324 9.88511C67.9616 12.5538 69.9251 15.6038 71.2146 19.035C72.5627 22.4117 73.2368 25.8701 73.2368 29.4102C73.2368 32.9504 72.5627 36.436 71.2146 39.8672C69.9251 43.2439 67.9616 46.2939 65.324 49.0171C62.7451 51.6858 59.4921 53.8371 55.565 55.471C51.6379 57.1049 47.0661 57.9491 41.8496 58.0035H6.59395V11.1922L0 0.816955H6.59395H41.8496ZM21.4523 46.4845H41.41C44.1648 46.4845 46.5679 45.9943 48.6194 45.014C50.6708 44.0337 52.3706 42.7538 53.7187 41.1743C55.1254 39.5404 56.1511 37.7159 56.7959 35.7008C57.4992 33.6312 57.8509 31.5343 57.8509 29.4102C57.8509 27.2862 57.4992 25.1893 56.7959 23.1197C56.1511 21.0501 55.1254 19.2256 53.7187 17.6461C52.3706 16.0122 50.6708 14.7051 48.6194 13.7248C46.5679 12.7444 44.1648 12.2543 41.41 12.2543H21.4523V46.4845ZM119.759 0L149.476 58.0035H133.738L112.198 16.339L90.658 58.0035H74.9204L100.857 7.43426L96.1969 0H119.759ZM121.342 43.2984L112.198 53.6737L103.055 43.2984H121.342ZM158.67 36.5994L152.076 25.0804H193.222C196.036 25.0804 198.146 24.4268 199.553 23.1197C200.959 21.7581 201.663 20.2876 201.663 18.7082C201.663 17.1287 200.959 15.6855 199.553 14.3783C198.146 13.0168 196.036 12.336 193.222 12.336H158.67L152.076 0.816955H195.772C199.172 0.816955 202.132 1.33436 204.652 2.36916C207.172 3.3495 209.253 4.68386 210.894 6.37222C212.594 8.06059 213.854 9.99404 214.675 12.1726C215.554 14.2966 215.994 16.4752 215.994 18.7082C215.994 20.451 215.73 22.1666 215.202 23.855C214.675 25.5433 213.883 27.15 212.828 28.675C211.832 30.1455 210.543 31.4799 208.96 32.678C207.436 33.8218 205.648 34.7204 203.597 35.374L220.214 58.0035H201.663L187.683 36.5994H158.67ZM289.144 0.816955V12.2543H262.241V58.0035H247.382V12.2543H222.237V0.816955H289.144Z" fill="white"/>
<path d="M0 76.7661H21.4523L45.2784 115.326L69.1053 76.7661H83.9636V133.953H69.1053V99.9676L48.0039 133.953H42.465L21.4523 99.9676V133.953H6.59393V87.1414L0 76.7661ZM114.563 76.7661V88.2851H99.7049L93.1109 76.7661H114.563ZM93.1109 97.1899H114.563V133.953H99.7049V107.647L93.1109 97.1899ZM183.019 87.3048H155.325C152.042 87.3048 149.317 87.7677 147.148 88.6936C144.98 89.565 143.895 90.9811 143.895 92.9418C143.895 94.1944 144.511 95.202 145.742 95.9645C146.972 96.727 148.584 97.3805 150.577 97.9252C152.629 98.4153 154.944 98.8783 157.523 99.314C160.16 99.6952 162.827 100.185 165.523 100.785C168.22 101.329 170.857 102.01 173.436 102.827C176.074 103.644 178.389 104.733 180.382 106.095C182.433 107.402 184.074 109.036 185.305 110.996C186.536 112.957 187.152 115.353 187.152 118.186C187.152 121.344 186.331 124.04 184.69 126.273C183.107 128.506 180.968 130.331 178.272 131.747C175.576 133.163 172.44 134.198 168.864 134.851C165.348 135.505 161.684 135.832 157.874 135.832H126.839V123.741H159.369C161.01 123.741 162.534 123.659 163.941 123.496C165.348 123.278 166.578 122.951 167.633 122.515C168.688 122.08 169.509 121.535 170.095 120.882C170.681 120.228 170.974 119.438 170.974 118.512C170.974 117.205 170.359 116.143 169.128 115.326C167.897 114.509 166.256 113.828 164.205 113.284C162.212 112.739 159.926 112.249 157.347 111.813C154.768 111.323 152.101 110.806 149.346 110.261C146.65 109.662 144.013 108.954 141.434 108.137C138.855 107.266 136.539 106.176 134.488 104.869C132.495 103.508 130.883 101.847 129.652 99.8859C128.421 97.9252 127.806 95.5288 127.806 92.6967C127.806 89.5378 128.539 86.8691 130.004 84.6906C131.469 82.4576 133.433 80.633 135.895 79.217C138.356 77.8009 141.199 76.7934 144.423 76.1943C147.705 75.5407 151.134 75.2139 154.709 75.2139L183.019 75.2956V87.3048ZM254.025 87.3048H226.331C223.048 87.3048 220.323 87.7677 218.154 88.6936C215.985 89.565 214.901 90.9811 214.901 92.9418C214.901 94.1944 215.517 95.202 216.747 95.9645C217.978 96.727 219.59 97.3805 221.583 97.9252C223.634 98.4153 225.95 98.8783 228.529 99.314C231.166 99.6952 233.833 100.185 236.529 100.785C239.225 101.329 241.863 102.01 244.442 102.827C247.08 103.644 249.395 104.733 251.388 106.095C253.439 107.402 255.08 109.036 256.311 110.996C257.542 112.957 258.157 115.353 258.157 118.186C258.157 121.344 257.337 124.04 255.696 126.273C254.113 128.506 251.974 130.331 249.277 131.747C246.581 133.163 243.446 134.198 239.87 134.851C236.353 135.505 232.69 135.832 228.88 135.832H197.845V123.741H230.375C232.016 123.741 233.54 123.659 234.947 123.496C236.353 123.278 237.584 122.951 238.639 122.515C239.694 122.08 240.515 121.535 241.101 120.882C241.687 120.228 241.98 119.438 241.98 118.512C241.98 117.205 241.365 116.143 240.134 115.326C238.903 114.509 237.262 113.828 235.21 113.284C233.218 112.739 230.932 112.249 228.353 111.813C225.774 111.323 223.107 110.806 220.352 110.261C217.656 109.662 215.018 108.954 212.439 108.137C209.86 107.266 207.545 106.176 205.494 104.869C203.501 103.508 201.889 101.847 200.658 99.8859C199.427 97.9252 198.812 95.5288 198.812 92.6967C198.812 89.5378 199.545 86.8691 201.01 84.6906C202.475 82.4576 204.439 80.633 206.9 79.217C209.362 77.8009 212.205 76.7934 215.429 76.1943C218.711 75.5407 222.14 75.2139 225.715 75.2139L254.025 75.2956V87.3048ZM287.226 76.7661V88.2851H272.367L265.773 76.7661H287.226ZM265.773 97.1899H287.226V133.953H272.367V107.647L265.773 97.1899ZM368.87 105.359C368.87 110.479 367.785 114.945 365.617 118.757C363.507 122.57 360.752 125.756 357.352 128.316C354.011 130.821 350.26 132.7 346.099 133.953C341.996 135.205 337.922 135.832 333.878 135.832C329.834 135.832 325.731 135.205 321.569 133.953C317.408 132.7 313.627 130.821 310.228 128.316C306.887 125.756 304.132 122.57 301.963 118.757C299.853 114.945 298.798 110.479 298.798 105.359C298.798 100.24 299.853 95.7739 301.963 91.9614C304.132 88.149 306.887 84.9901 310.228 82.4848C313.627 79.925 317.408 78.0188 321.569 76.7661C325.731 75.5135 329.834 74.8871 333.878 74.8871C337.922 74.8871 341.996 75.5135 346.099 76.7661C350.26 78.0188 354.011 79.925 357.352 82.4848C360.752 84.9901 363.507 88.149 365.617 91.9614C367.785 95.7739 368.87 100.24 368.87 105.359ZM353.748 105.359C353.748 102.418 353.132 99.8586 351.901 97.6801C350.729 95.5016 349.176 93.7043 347.242 92.2882C345.307 90.8177 343.168 89.7284 340.823 89.0204C338.479 88.3124 336.164 87.9584 333.878 87.9584C331.592 87.9584 329.247 88.3124 326.844 89.0204C324.5 89.7284 322.36 90.8177 320.426 92.2882C318.492 93.7043 316.909 95.5016 315.679 97.6801C314.506 99.8586 313.92 102.418 313.92 105.359C313.92 108.3 314.506 110.86 315.679 113.039C316.909 115.163 318.492 116.96 320.426 118.431C322.36 119.847 324.5 120.909 326.844 121.617C329.247 122.325 331.592 122.679 333.878 122.679C336.164 122.679 338.479 122.325 340.823 121.617C343.168 120.909 345.307 119.847 347.242 118.431C349.176 116.96 350.729 115.163 351.901 113.039C353.132 110.86 353.748 108.3 353.748 105.359ZM324.734 102.418H343.021L333.878 112.712L324.734 102.418ZM434.029 76.7661H448.799V132.727L483 169H466.119L396.224 94.5757V133.953H381.365V87.1414L374.771 76.7661H396.224L434.029 116.96V76.7661Z" fill="white"/>
</svg>
